<svg width="40" height="40" viewBox="0 0 40 40" fill="none" xmlns="http://www.w3.org/2000/svg">
<rect x="0.5" y="0.5" width="39" height="39" rx="9.5" fill="white" stroke="black"/>
<path d="M19.184 22.016C17.1467 22.016 15.568 21.904 14.448 21.68C14.16 16.336 13.8987 13.104 13.664 11.984L13.184 12.096C12.928 12.1493 12.6827 12.208 12.448 12.272C12.2133 12.3253 11.9627 12.4053 11.696 12.512L11.68 11.968C11.68 11.7867 11.8773 11.6213 12.272 11.472C12.6667 11.312 13.1413 11.1893 13.696 11.104C14.2613 11.008 14.7627 10.96 15.2 10.96C15.68 10.96 16.2293 11.0453 16.848 11.216C17.4773 11.3867 18.016 11.6427 18.464 11.984C18.912 12.3147 19.136 12.7093 19.136 13.168C19.136 13.6907 18.9333 14.1547 18.528 14.56C18.1333 14.9547 17.616 15.2373 16.976 15.408C17.9147 15.568 18.7893 15.856 19.6 16.272C20.4107 16.6773 21.0613 17.184 21.552 17.792C22.0427 18.3893 22.288 19.0347 22.288 19.728C22.288 20.528 21.9787 21.1093 21.36 21.472C20.7413 21.8347 20.016 22.016 19.184 22.016ZM18.768 21.104C19.5573 21.104 20.1653 21.0187 20.592 20.848C21.0187 20.6667 21.232 20.2827 21.232 19.696C21.232 19.0773 21.0453 18.56 20.672 18.144C20.3093 17.7173 19.8773 17.3867 19.376 17.152C18.8853 16.9067 18.272 16.6507 17.536 16.384C16.9493 16.1813 16.512 16.0053 16.224 15.856C15.9467 15.696 15.808 15.52 15.808 15.328C15.808 15.1893 15.8773 15.0827 16.016 15.008C16.1547 14.9333 16.4 14.8267 16.752 14.688C17.232 14.528 17.6053 14.3573 17.872 14.176C18.1493 13.984 18.288 13.7173 18.288 13.376C18.288 12.8747 17.984 12.4907 17.376 12.224C16.768 11.9467 16.0853 11.808 15.328 11.808C15.1147 11.808 14.8587 11.8293 14.56 11.872C14.8373 13.664 15.0293 15.1733 15.136 16.4C15.2427 17.616 15.3173 19.0293 15.36 20.64C15.5093 20.7893 15.888 20.9013 16.496 20.976C17.104 21.0507 17.8613 21.0933 18.768 21.104Z" fill="black"/>
<path d="M25.064 29C24.7973 29.0533 24.6107 28.9253 24.504 28.616C24.3973 28.296 24.3387 27.8267 24.328 27.208C24.3067 26.3013 24.2747 25.544 24.232 24.936C24.2 24.3173 24.136 23.7627 24.04 23.272C23.048 23.7413 22.0667 24.1733 21.096 24.568C20.136 24.952 19.656 25.1387 19.656 25.128L19.688 28.536C19.688 28.696 19.592 28.7973 19.4 28.84C19.144 28.8933 18.9733 28.7493 18.888 28.408C18.8133 28.056 18.76 27.5067 18.728 26.76C18.7067 26.088 18.6747 25.6133 18.632 25.336C18.3333 25.4853 18.0773 25.5547 17.864 25.544C17.8213 25.4587 17.8 25.2827 17.8 25.016C17.8853 24.984 17.9867 24.9467 18.104 24.904C18.232 24.8613 18.3227 24.8133 18.376 24.76C18.44 24.696 18.472 24.6053 18.472 24.488C18.472 23.9547 18.4187 23.1333 18.312 22.024C18.1947 21.0213 18.136 20.1947 18.136 19.544L18.152 18.808C18.184 18.7333 18.2213 18.6853 18.264 18.664C18.3173 18.6427 18.3867 18.632 18.472 18.632C18.6533 18.632 18.744 18.6907 18.744 18.808L19.4 24.44C19.6987 24.3653 20.1947 24.1733 20.888 23.864C21.5813 23.5547 22.648 23.0533 24.088 22.36L24.152 18.808C24.152 18.392 24.3067 18.184 24.616 18.184C24.744 18.184 24.8293 18.232 24.872 18.328C24.9253 18.424 24.9413 18.584 24.92 18.808L24.904 21.576C24.904 22.5147 24.9573 23.736 25.064 25.24C25.096 25.5387 25.1227 25.8267 25.144 26.104C25.176 26.3707 25.2027 26.6267 25.224 26.872C25.288 27.5333 25.3307 27.9547 25.352 28.136C25.384 28.3067 25.432 28.4613 25.496 28.6C25.4427 28.8133 25.2987 28.9467 25.064 29Z" fill="black"/>
</svg>
